<?xml version="1.0" standalone="no"?><!DOCTYPE svg PUBLIC "-//W3C//DTD SVG 1.1//EN" "http://www.w3.org/Graphics/SVG/1.1/DTD/svg11.dtd"><svg t="1760000064707" class="icon" viewBox="0 0 1969 1024" version="1.1" xmlns="http://www.w3.org/2000/svg" p-id="1372" xmlns:xlink="http://www.w3.org/1999/xlink" width="384.5703125" height="200"><path d="M1649.788729 731.464319C1673.754152 405.962116 1282.656449 382.109207 1282.656449 382.109207s270.032937 14.626784 383.109229 142.892429C1768.153166 320.001631 1968.990163 350.380337 1968.990163 350.380337S1689.618587 442.979131 1649.788729 731.464319zM1037.489045 1024C1056.728892 765.781004 742.590576 746.878699 742.590576 746.878699s216.926459 11.588914 307.725034 113.413833A242.43332 242.43332 0 0 1 1293.907821 721.675625S1069.555457 795.147086 1037.489045 1024zM367.13228 382.671775C391.097703 57.169573 0 33.316664 0 33.316664s270.032937 14.626784 383.109229 142.892429C485.496717-28.790912 686.333714 1.587794 686.333714 1.587794S406.962138 94.186588 367.13228 382.671775z" fill="#505050" p-id="1373"></path></svg>