<?xml version="1.0" standalone="no"?><!DOCTYPE svg PUBLIC "-//W3C//DTD SVG 1.1//EN" "http://www.w3.org/Graphics/SVG/1.1/DTD/svg11.dtd"><svg t="1759999828998" class="icon" viewBox="0 0 1123 1024" version="1.1" xmlns="http://www.w3.org/2000/svg" p-id="1372" xmlns:xlink="http://www.w3.org/1999/xlink" width="219.3359375" height="200"><path d="M690.520854 6.642019l117.464098 0 0 269.483297-117.464098 0 0-269.483297Z" fill="#AAE2AA" p-id="1373"></path><path d="M1101.977298 586.075112L744.387624 141.690861c-80.849971-100.477136-233.882078-100.477136-314.732049 0L71.883246 586.075112c-50.512551 62.75047-5.844976 156.087436 74.722708 156.087436a166.930531 166.930531 0 0 0 130.050724-62.219109l235.559188-292.763573a95.910748 95.910748 0 0 1 149.445417 0l235.492768 292.763573a166.913926 166.913926 0 0 0 130.034118 62.252319c80.6175-0.083025 125.30168-93.370176 74.789129-156.120646z" fill="#C7E4C8" p-id="1374"></path><path d="M308.920283 675.327236l536.359603 0 0 342.030745-536.359603 0 0-342.030745Z" fill="#C7E4C8" p-id="1375"></path><path d="M983.334241 748.754751a172.792113 172.792113 0 0 1-135.214892-64.759681L612.543556 391.331128a89.268729 89.268729 0 0 0-139.083869 0L237.93371 684.02828a172.808718 172.808718 0 0 1-135.214893 64.759681 102.552766 102.552766 0 0 1-79.920088-166.814296L380.454823 137.522994a208.659013 208.659013 0 0 1 325.093598 0l357.656093 444.450671a102.552766 102.552766 0 0 1-79.870273 166.781086z m-440.332619-404.000778a102.121035 102.121035 0 0 1 79.903483 38.191607l235.559188 292.746967a159.574496 159.574496 0 0 0 124.869948 59.778167 89.252124 89.252124 0 0 0 69.541935-145.194525L695.203477 145.858727a195.358371 195.358371 0 0 0-304.387105 0L33.143673 590.276189a89.252124 89.252124 0 0 0 69.541934 145.227735 159.524681 159.524681 0 0 0 124.853344-59.778167L463.114743 383.012a102.087825 102.087825 0 0 1 79.886879-38.258027z" fill="#333333" p-id="1376"></path><path d="M689.25887 1023.983395h-312.174872a118.842317 118.842317 0 0 1-118.726081-118.709477v-117.895829a118.842317 118.842317 0 0 1 118.726081-118.709476h312.174872a118.842317 118.842317 0 0 1 118.726082 118.709476v117.895829a118.842317 118.842317 0 0 1-118.726082 118.709477z m-312.174872-342.063955a105.55828 105.55828 0 0 0-105.442044 105.425439v117.895829a105.55828 105.55828 0 0 0 105.442044 105.42544h312.174872a105.541675 105.541675 0 0 0 105.442045-105.42544v-117.895829a105.541675 105.541675 0 0 0-105.442045-105.425439zM707.607446 282.767335h-4.566387a63.099176 63.099176 0 0 1-63.099177-63.099176V63.099176a63.099176 63.099176 0 0 1 63.099177-63.099176h4.566387a63.099176 63.099176 0 0 1 63.099177 63.099176v156.568983a63.099176 63.099176 0 0 1-63.099177 63.099176zM703.041059 13.284037a49.815139 49.815139 0 0 0-49.81514 49.815139v156.568983a49.815139 49.815139 0 0 0 49.81514 49.815139h4.566387a49.815139 49.815139 0 0 0 49.815139-49.815139V63.099176a49.815139 49.815139 0 0 0-49.815139-49.815139z" fill="#333333" p-id="1377"></path><path d="M658.074593 797.108646m-59.595511 0a59.595511 59.595511 0 1 0 119.191022 0 59.595511 59.595511 0 1 0-119.191022 0Z" fill="#FFFFFF" p-id="1378"></path><path d="M630.244535 863.346176a66.23753 66.23753 0 1 1 66.23753-66.23753 66.320555 66.320555 0 0 1-66.23753 66.23753z m0-119.191023a52.953493 52.953493 0 1 0 52.953493 52.953493 53.003308 53.003308 0 0 0-52.953493-52.953493z" fill="#333333" p-id="1379"></path></svg>