<?xml version="1.0" standalone="no"?><!DOCTYPE svg PUBLIC "-//W3C//DTD SVG 1.1//EN" "http://www.w3.org/Graphics/SVG/1.1/DTD/svg11.dtd"><svg t="1760056500324" class="icon" viewBox="0 0 1024 1024" version="1.1" xmlns="http://www.w3.org/2000/svg" p-id="2014" xmlns:xlink="http://www.w3.org/1999/xlink" width="200" height="200"><path d="M519.53664 323.91168l-56.23808-30.49472a133.632 133.632 0 0 0-36.63872-160.6656l42.96704-47.4112a197.2224 197.2224 0 0 1 49.90976 238.592z" fill="#FF973B" p-id="2015"></path><path d="M730.66496 256h-10.6496a155.11552 155.11552 0 0 0-101.888 41.1648 157.53216 157.53216 0 0 0-102.89152-41.1648h-6.47168a157.53216 157.53216 0 0 0-102.89152 41.1648 155.11552 155.11552 0 0 0-101.86752-41.1648h-10.67008c-114.8928 0-207.99488 143.27808-207.99488 320 0 176.7424 93.12256 320 207.99488 320h10.6496a155.11552 155.11552 0 0 0 101.888-41.1648 157.53216 157.53216 0 0 0 102.89152 41.1648h6.47168a157.53216 157.53216 0 0 0 102.89152-41.1648 155.11552 155.11552 0 0 0 101.86752 41.1648h10.67008c114.8928 0 207.99488-143.27808 207.99488-320 0-176.7424-93.12256-320-207.99488-320zM512 512l64 85.34016h-128L512 512z m-256-128L426.65984 512H213.34016l42.65984-128z m388.7104 376.6272L512 716.3904l-132.7104 44.2368-141.04576-94.0032 35.51232-53.248 114.97472 76.63616L512 648.92928l123.2896 41.08288 114.95424-76.63616 35.51232 53.248-141.02528 94.0032zM597.36064 512l170.65984-128L810.65984 512H597.34016z" fill="#FF973B" p-id="2016"></path></svg>