<?xml version="1.0" standalone="no"?><!DOCTYPE svg PUBLIC "-//W3C//DTD SVG 1.1//EN" "http://www.w3.org/Graphics/SVG/1.1/DTD/svg11.dtd"><svg t="1760056488261" class="icon" viewBox="0 0 1024 1024" version="1.1" xmlns="http://www.w3.org/2000/svg" p-id="1860" xmlns:xlink="http://www.w3.org/1999/xlink" width="200" height="200"><path d="M921.771711 354.413915c-20.374026-62.733786-52.131311-120.022561-94.389764-170.274058-43.763736-52.040237-96.91426-94.202499-157.955498-125.302821-60.650335-30.987758-125.621069-49.183166-193.109136-54.078662l-48.478108-3.517104 31.360242 37.134759c120.749108 142.980435 66.154699 391.07386 14.859429 515.127224-63.683415 154.014746-210.91978 253.532297-375.104143 253.532297-10.177803 0-20.523429-0.381693-30.749328-1.13587l-48.532343-3.576455 31.388894 37.188994c43.682895 51.751664 96.565313 93.569072 157.13276 124.266211 72.206532 36.838 149.652392 55.516408 230.187613 55.516408 92.245937 0 182.892447-25.13547 262.137279-72.686462 81.477686-48.891524 147.44205-119.676683 190.762695-204.702172 31.111578-61.062727 49.334615-126.415155 54.163597-194.241936 4.66423-65.50183-3.302209-130.520659-23.674189-193.250353z m-66.960041 368.910071c-80.150458 157.312862-239.71664 255.037581-416.429341 255.037581-74.006528 0-145.19487-17.174148-211.634048-51.070143-41.48688-21.025872-79.027891-47.705512-112.066355-79.595826 84.193541-2.925632 164.899654-29.333072 234.317676-76.814479 72.493058-49.585325 128.817877-119.344109 162.885788-201.735608 35.513842-85.889159 57.652048-185.888687 60.736292-274.358625 1.896186-54.378491-3.157923-104.792695-15.021111-149.841703-9.072633-34.458813-22.167882-65.869197-39.095413-93.856621 45.877887 7.898901 90.218768 22.701025 132.318607 44.210921 111.086028 56.598043 193.484689 153.110143 232.017285 271.758404 38.530548 118.640074 28.575826 245.164722-28.02938 356.266099z" fill="#d81e06" p-id="1861"></path><path d="M370.414331 308.132846l-31.547507 189.034331-31.547506-189.034331-126.065184-31.547507 126.065184-31.54853 31.547506-94.516654 31.547507 94.516654 126.065184 31.54853-126.065184 31.547507zM183.473685 507.536338l-17.10354 102.485139-17.10354-102.485139-68.346621-17.103539 68.346621-17.10354 17.10354-51.242058 17.10354 51.242058 68.345598 17.10354-68.345598 17.103539z" fill="#d81e06" p-id="1862"></path></svg>