<?xml version="1.0" standalone="no"?><!DOCTYPE svg PUBLIC "-//W3C//DTD SVG 1.1//EN" "http://www.w3.org/Graphics/SVG/1.1/DTD/svg11.dtd"><svg t="1760056483088" class="icon" viewBox="0 0 1024 1024" version="1.1" xmlns="http://www.w3.org/2000/svg" p-id="1696" xmlns:xlink="http://www.w3.org/1999/xlink" width="200" height="200"><path d="M592 192c-154.4 0-280 125.6-280 280v520h464v24h96V472c0-154.4-125.6-280-280-280z" fill="#B2B5B7" p-id="1697"></path><path d="M432 192c-154.4 0-280 125.6-280 280v520h560V472c0-154.4-125.6-280-280-280z" fill="#FFFFFF" p-id="1698"></path><path d="M336 376m-24 0a24 24 0 1 0 48 0 24 24 0 1 0-48 0Z" fill="#B2B5B7" p-id="1699"></path><path d="M576 520m-24 0a24 24 0 1 0 48 0 24 24 0 1 0-48 0Z" fill="#B2B5B7" p-id="1700"></path><path d="M792 840m-24 0a24 24 0 1 0 48 0 24 24 0 1 0-48 0Z" fill="#FFFFFF" p-id="1701"></path><path d="M336 896m-24 0a24 24 0 1 0 48 0 24 24 0 1 0-48 0Z" fill="#B2B5B7" p-id="1702"></path><path d="M352 800c-7.2 0-15.2-3.2-19.2-10.4L296 739.2V776c0 13.6-10.4 24-24 24s-24-10.4-24-24V616c0-13.6 10.4-24 24-24h40c35.2 0 64 28.8 64 64v24c0 20.8-10.4 40-26.4 52l21.6 30.4c8 10.4 5.6 25.6-5.6 33.6-4 2.4-8.8 4-13.6 4z m-56-160v40.8c0 8.8 6.4 16 15.2 15.2 8.8 0 16.8-7.2 16.8-16v-24c0-8.8-7.2-16-16-16h-16zM512 800c-13.6 0-24-10.4-24-24V616c0-13.6 10.4-24 24-24h40c35.2 0 64 28.8 64 64v24c0 35.2-28.8 64-64 64h-16v32c0 13.6-10.4 24-24 24z m24-104h16c8.8 0 16-7.2 16-16v-24c0-8.8-7.2-16-16-16h-16v56zM432 800c-13.6 0-24-10.4-24-24V616c0-13.6 10.4-24 24-24s24 10.4 24 24v160c0 13.6-10.4 24-24 24z" fill="#444B54" p-id="1703"></path><path d="M990.4 968H904c-4.8 0-8-3.2-8-8V472c0-168-136-304-304-304H432c-168 0-304 136-304 304v488c0 4.8-3.2 8-8 8H40.8c-12 0-22.4 8-24.8 19.2-2.4 15.2 8.8 28.8 24 28.8h734.4c12.8 0 24.8-9.6 25.6-22.4 0.8-13.6-10.4-25.6-24-25.6h-32c-4.8 0-8-3.2-8-8V472c0-79.2-30.4-153.6-84.8-210.4-8.8-9.6-24-11.2-33.6-3.2-11.2 9.6-11.2 26.4-0.8 36 48.8 44.8 71.2 112 71.2 178.4V960c0 4.8-3.2 8-8 8H184c-4.8 0-8-3.2-8-8V472c0-141.6 114.4-256 256-256h160c141.6 0 256 114.4 256 256v520c0 13.6 10.4 24 24 24h120c13.6 0 24.8-11.2 24-25.6-0.8-12.8-12-22.4-25.6-22.4z" fill="#444B54" p-id="1704"></path></svg>